<?xml version="1.0" encoding="utf-8"?>
<!-- Generator: Adobe Illustrator 19.2.1, SVG Export Plug-In . SVG Version: 6.00 Build 0)  -->
<!DOCTYPE svg PUBLIC "-//W3C//DTD SVG 1.1//EN" "http://www.w3.org/Graphics/SVG/1.1/DTD/svg11.dtd">
<svg width="158.9px" height="28px" version="1.1" id="Layer_1" xmlns="http://www.w3.org/2000/svg" xmlns:xlink="http://www.w3.org/1999/xlink" x="0px" y="0px"
	 viewBox="0 0 210 37" style="enable-background:new 0 0 210 37;" xml:space="preserve">
<g>
	<g>
		<path d="M63.1,16.1v16.4c0,0.4-0.3,0.7-0.7,0.7H61c-0.4,0-0.7-0.3-0.7-0.7v-9h-4.6v9c0,0.4-0.3,0.7-0.7,0.7h-1.4
			c-0.4,0-0.7-0.3-0.7-0.7V16.1c0-2.8,2.3-5.2,5.2-5.2C60.8,10.9,63.1,13.3,63.1,16.1z M60.2,16.1c0-1.3-1-2.3-2.3-2.3
			c-1.3,0-2.3,1-2.3,2.3v4.5h4.6V16.1z"/>
		<path d="M79.1,11.6v1.4c0,0.4-0.3,0.7-0.7,0.7h-2v18.7c0,0.4-0.3,0.7-0.7,0.7h-1.4c-0.4,0-0.7-0.4-0.7-0.7V13.8h-2
			c-0.4,0-0.7-0.3-0.7-0.7v-1.4c0-0.4,0.3-0.7,0.7-0.7h6.9C78.8,10.9,79.1,11.2,79.1,11.6z"/>
		<path d="M93.2,11.6v20.9c0,0.4-0.3,0.7-0.7,0.7h-1.4c-0.4,0-0.7-0.3-0.7-0.7v-9h-4.6v9c0,0.4-0.3,0.7-0.7,0.7h-1.4
			c-0.4,0-0.7-0.3-0.7-0.7V11.6c0-0.4,0.3-0.7,0.7-0.7H85c0.4,0,0.7,0.3,0.7,0.7v9h4.6v-9c0-0.4,0.4-0.7,0.7-0.7h1.4
			C92.9,10.9,93.2,11.2,93.2,11.6z"/>
		<path d="M100.3,32.5c0,0.4-0.3,0.7-0.7,0.7h-1.4c-0.4,0-0.7-0.3-0.7-0.7V11.6c0-0.4,0.3-0.7,0.7-0.7h1.4c0.4,0,0.7,0.3,0.7,0.7
			V32.5z"/>
		<path d="M114.9,16.1v16.4c0,0.4-0.3,0.7-0.7,0.7h-1.4c-0.4,0-0.7-0.4-0.7-0.7V16.1c0-1.3-1-2.3-2.3-2.3c-1.3,0-2.3,1-2.3,2.3v16.4
			c0,0.4-0.3,0.7-0.7,0.7h-1.4c-0.4,0-0.7-0.4-0.7-0.7V16.1c0-2.8,2.3-5.2,5.2-5.2C112.6,10.9,114.9,13.2,114.9,16.1z"/>
		<path d="M129.5,18.2c0,1.5-0.6,2.8-1.6,3.8c1,0.9,1.6,2.3,1.6,3.7v6.7c0,0.4-0.3,0.7-0.7,0.7h-1.4c-0.4,0-0.7-0.4-0.7-0.7v-6.7
			c0-1.3-1-2.3-2.3-2.3H122v9c0,0.4-0.3,0.7-0.7,0.7h-1.4c-0.4,0-0.7-0.4-0.7-0.7v-9v-2.9v-9c0-0.4,0.3-0.7,0.7-0.7h1.4
			c0.4,0,0.7,0.3,0.7,0.7v9h2.3c1.3,0,2.3-1,2.3-2.3v-6.6c0-0.4,0.3-0.7,0.7-0.7h1.4c0.4,0,0.7,0.3,0.7,0.7V18.2z"/>
		<path d="M136.6,32.5c0,0.4-0.3,0.7-0.7,0.7h-1.4c-0.4,0-0.7-0.3-0.7-0.7V11.6c0-0.4,0.3-0.7,0.7-0.7h1.4c0.4,0,0.7,0.3,0.7,0.7
			V32.5z"/>
		<path d="M151.3,16.1v16.4c0,0.4-0.3,0.7-0.7,0.7h-1.4c-0.4,0-0.7-0.4-0.7-0.7V16.1c0-1.3-1-2.3-2.3-2.3c-1.3,0-2.3,1-2.3,2.3v16.4
			c0,0.4-0.3,0.7-0.7,0.7h-1.4c-0.4,0-0.7-0.4-0.7-0.7V16.1c0-2.8,2.3-5.2,5.2-5.2C148.9,10.9,151.3,13.2,151.3,16.1z"/>
		<path d="M162.9,17.6v-1.5c0-1.3-1-2.3-2.3-2.3c-1.3,0-2.3,1-2.3,2.3v12c0,1.3,1,2.3,2.3,2.3c1.3,0,2.3-1,2.3-2.3v-4.6h-1.6
			c-0.4,0-0.7-0.3-0.7-0.7v-1.4c0-0.4,0.3-0.7,0.7-0.7h3.7c0.4,0,0.7,0.3,0.7,0.7v6.8c0,2.8-2.3,5.1-5.2,5.1c-2.8,0-5.2-2.3-5.2-5.1
			v-12c0-2.9,2.3-5.2,5.2-5.2c2.8,0,5.2,2.3,5.2,5.2v1.5c0,0.4-0.3,0.7-0.7,0.7h-1.4C163.3,18.4,162.9,18,162.9,17.6z"/>
		<path d="M184.6,16.1v16.4c0,0.4-0.3,0.7-0.7,0.7h-1.4c-0.4,0-0.7-0.3-0.7-0.7v-9h-4.6v9c0,0.4-0.3,0.7-0.7,0.7h-1.4
			c-0.4,0-0.7-0.3-0.7-0.7V16.1c0-2.8,2.3-5.2,5.2-5.2C182.2,10.9,184.6,13.3,184.6,16.1z M181.7,16.1c0-1.3-1-2.3-2.3-2.3
			c-1.3,0-2.3,1-2.3,2.3v4.5h4.6V16.1z"/>
		<path d="M199.2,16.1v2.2c0,2.9-2.3,5.2-5.2,5.2h-2.3v9c0,0.4-0.3,0.7-0.7,0.7h-1.4c-0.4,0-0.7-0.4-0.7-0.7v-9v-2.9v-9
			c0-0.4,0.4-0.7,0.7-0.7h4.5C196.9,10.9,199.2,13.2,199.2,16.1z M196.3,16.1c0-1.3-1-2.3-2.3-2.3h-2.3v6.8h2.3c1.3,0,2.3-1,2.3-2.3
			V16.1z"/>
		<path d="M205.4,13.8v6.8h3.9c0.4,0,0.7,0.3,0.7,0.7v1.4c0,0.4-0.3,0.7-0.7,0.7h-3.9v6.9h3.9c0.4,0,0.7,0.3,0.7,0.7v1.4
			c0,0.4-0.3,0.7-0.7,0.7h-5.4c-0.8,0-1.4-0.7-1.4-1.4V12.3c0-0.8,0.6-1.4,1.4-1.4h5.4c0.4,0,0.7,0.3,0.7,0.7v1.4
			c0,0.4-0.3,0.7-0.7,0.7H205.4z"/>
	</g>
	<path d="M41.8,30.1c-0.4-0.9-0.7-1.7-0.9-2.9c-0.3-2.2,0.2-5.8-2.3-8.2c-5.1-4.8-6.1-9.2-6.9-10.2c-1.4-1.7-3.5-1.7-3.9-4.3
		C27.7,3.7,27.2,5,27,5.2c-0.2,0.2-2.2-1.8-2.9-2.2C17.2-2.1,8.7,0.8,6.8,3C5.3,4.7,3.9,6.7,2.5,8.4c-1.8,2.2-1.8,4.7-1.6,7.3
		C1.1,17.2,1.4,18.6,1,20c-0.7,2.9-1.7,5.8-0.3,9.6c0.6,0.3-0.3-2.6,2.1-9.7c0.5-2.2,0.2-3.8,0.1-4.8C2.3,11.1,9.2,6,9.7,5.7
		c1.1-0.7-1.4-0.2-1.3-0.6c0.7-0.9,2.9-1.1,3.9-1.1c5.4-0.3,10.3,4.1,8.7,7.3c-0.4,0.9-5.2,3.2-5.8,3.2c-0.2,0,1.2,1.3,0.7,3
		c2.2-1.1,4.4-0.7,5.8-0.4c1.2,0.2,3.3,1.3,4.5,1.6c3.4,0.9,8.7-0.4,11,2.4c1,1.5,1,3.4,1,4.3c-3.3-0.7-4.7,0.8-7,0.8
		c-2.3,0-2-0.2-4-0.6c-2-0.4-4.9,0.7-5.7,2.7c-0.7,2.2,0.7,6.6,7.7,6.1c0.9-0.1,6.3-0.3,9,1.7c2.1,1.4,4.3,0.5,4.5-1.6
		C42.8,32.1,42.5,31.6,41.8,30.1z M27.9,31.4c-1-0.7-4.1-1.5-4.1-1.5s-1.4-0.3-0.5-1.1s2.4-0.9,3-0.9c0.6,0,4.1,0.7,4,3
		C30.2,33.1,29,32.1,27.9,31.4z M38,29.9c0,0-3.1,0.8-4.1,1.5c-1,0.7-2.3,1.7-2.4-0.5c-0.2-2.2,3.4-2.9,4-3c0.6,0,2.1,0.1,3,0.9
		C39.5,29.7,38,29.9,38,29.9z"/>
	<path d="M16,22.6c0.9,0.2,1.3,1.4,3.4,1.4c1.3,0,2.5-1.2,2.5-1.2C19.8,20.7,16,22.6,16,22.6z"/>
	<path d="M34,22.7c-2.2-2-5.9-0.2-5.9-0.2c0.9,0.2,1.3,1.4,3.4,1.4C32.8,23.9,34,22.7,34,22.7z"/>
</g>
</svg>
