<?xml version="1.0" ?><!DOCTYPE svg  PUBLIC '-//W3C//DTD SVG 1.1//EN'  'http://www.w3.org/Graphics/SVG/1.1/DTD/svg11.dtd'><svg enable-background="new 0 0 512 512" height="512px" id="Layer_1" version="1.1" viewBox="0 0 512 512" width="512px" xml:space="preserve" xmlns="http://www.w3.org/2000/svg" xmlns:xlink="http://www.w3.org/1999/xlink"><path style="fill:#FF0000" d="M357.784,369.481h-52.621v52.604h52.621V369.481z M283.644,228.695h-52.589v52.593h52.589V228.695z M357.784,299.087  h-52.621v52.598h52.621V299.087z M431.857,228.695h-52.591v52.593h52.591V228.695z M283.644,299.087h-52.589v52.598h52.589V299.087z   M357.784,228.695h-52.621v52.593h52.621V228.695z M431.857,299.087h-52.591v52.598h52.591V299.087z M135.442,369.481H82.847v52.604  h52.595V369.481z M135.442,299.087H82.847v52.598h52.595V299.087z M418.325,43.264v23.088c9.073,8.028,14.823,19.728,14.823,32.795  c0,24.192-19.619,43.813-43.815,43.813c-24.204,0-43.814-19.621-43.814-43.813c0-13.072,5.748-24.77,14.824-32.795V43.264H155.619  v23.088c9.074,8.028,14.823,19.728,14.823,32.795c0,24.192-19.618,43.813-43.815,43.813c-24.201,0-43.814-19.621-43.814-43.813  c0-13.072,5.75-24.77,14.823-32.795V43.264H0.001v466.244h512V43.264H418.325z M465.24,462.742H46.764V171.461H465.24V462.742  L465.24,462.742z M209.575,228.695h-52.624v52.593h52.624V228.695z M209.575,369.481h-52.624v52.604h52.624V369.481z   M283.644,369.481h-52.589v52.604h52.589V369.481z M209.575,299.087h-52.624v52.598h52.624V299.087z M126.629,124.673  c12.045,0,21.811-9.762,21.811-21.807V24.302c0-12.039-9.766-21.809-21.811-21.809c-12.047,0-21.812,9.771-21.812,21.809v78.564  C104.817,114.91,114.582,124.673,126.629,124.673 M389.335,124.673c12.043,0,21.811-9.762,21.811-21.807V24.302  c0-12.039-9.768-21.809-21.811-21.809c-12.046,0-21.813,9.771-21.813,21.809v78.564C367.52,114.91,377.287,124.673,389.335,124.673"/></svg>
