<?xml version="1.0" encoding="UTF-8" standalone="no"?>
<svg width="137.5px" height="25px" viewBox="0 0 110 20" version="1.1" xmlns="http://www.w3.org/2000/svg" xmlns:xlink="http://www.w3.org/1999/xlink">
    <!-- Generator: Sketch 3.8.3 (29802) - http://www.bohemiancoding.com/sketch -->
    <title>Remind Logo Copy 3</title>
    <desc>Created with Sketch.</desc>
    <defs></defs>
    <g id="Symbols" stroke="none" stroke-width="1" fill="none" fill-rule="evenodd">
        <g id="Primary-Navigation-(Logged-In/Positive)" transform="translate(-40.000000, 0.000000)">
            <g transform="translate(40.000000, 0.000000)" id="Remind-Logo-Copy-3">
                <g>
                    <path d="M35.7817969,5.49888889 C35.0814063,5.32166667 34.3910417,5.22805556 33.670599,5.22805556 C30.665651,5.22805556 28.9322917,6.99 28.9322917,9.94138889 L28.9322917,17.1233333 C28.9322917,17.3944444 28.9847135,17.5 29.2642969,17.5 L30.7332552,17.5 C31.0128385,17.5 31.2239583,17.3944444 31.2239583,17.1233333 L31.2239583,9.85222222 C31.2239583,7.65055556 33.0501302,7.41277778 33.8433333,7.41277778 C34.2561198,7.41277778 34.7711719,7.48722222 35.286224,7.61944444 C35.5841406,7.66111111 35.7752083,7.53527778 35.8092969,7.29638889 L36.1120833,6.05472222 C36.2223698,5.67972222 35.9026823,5.54777778 35.7817969,5.49888889 Z M43.8072135,5.10944444 C39.8692708,5.10944444 37.3246615,7.62361111 37.3246615,11.5141667 C37.3246615,15.4047222 39.8692708,17.9188889 43.8072135,17.9188889 C45.8671354,17.9188889 47.5440625,17.2272222 48.795026,15.8583333 C48.8692188,15.7683333 48.8992969,15.6602778 48.8798177,15.5541667 C48.8586198,15.4416667 48.7829948,15.34 48.6652604,15.2716667 L47.4034115,14.6452778 C47.145026,14.5377778 46.9078385,14.5797222 46.7276563,14.7544444 C46.0352865,15.3680556 44.9433073,15.7341667 43.8072135,15.7341667 C41.4270313,15.7341667 39.946901,14.3541667 39.7177344,11.9444444 L49.8365885,11.9444444 C50.0542969,11.9444444 50.2465104,11.8775 50.2831771,11.6708333 C50.2891927,11.6377778 50.2897656,11.4180556 50.2897656,11.4152778 C50.290625,9.45083333 49.6423698,7.83888889 48.4143229,6.71083333 C47.2576042,5.64861111 45.6646094,5.10944444 43.8072135,5.10944444 Z M39.8847396,10 C39.8878906,9.98972222 39.8907552,9.97861111 39.8939063,9.96861111 C40.4029427,8.24388889 41.7925521,7.30583333 43.8072135,7.30583333 C45.7854948,7.30583333 47.1599219,8.05555556 47.6930208,10 L39.8847396,10 Z M78.3225781,5.55555556 L76.6513802,5.55555556 C76.4010156,5.55555556 76.1979167,5.75222222 76.1979167,5.995 L76.1979167,17.0605556 C76.1979167,17.3033333 76.4010156,17.5 76.6513802,17.5 L78.3225781,17.5 C78.5729427,17.5 78.7760417,17.3033333 78.7760417,17.0605556 L78.7760417,5.995 C78.7760417,5.75222222 78.5729427,5.55555556 78.3225781,5.55555556 Z M109.659974,0 L108.191016,0 C107.911432,0 107.708333,0.284444444 107.708333,0.555555556 L107.708333,6.325 C106.783073,5.26888889 105.209557,4.86388889 103.527188,4.83166667 C103.45987,4.83 103.400286,4.82944444 103.333542,4.82944444 C99.5714844,4.82944444 97.1446094,7.34444444 97.1446094,11.2363889 C97.1446094,14.9475 99.8161198,17.6411111 103.572448,17.6411111 C107.449661,17.6411111 110,15.0672222 110,11.2363889 L110,0.555555556 C110,0.284444444 109.939557,0 109.659974,0 Z M103.630885,15.4563889 C101.059349,15.4563889 99.5236458,13.8788889 99.5236458,11.2363889 C99.5236458,8.55444444 101.020677,7.01638889 103.630885,7.01638889 C106.187526,7.01638889 107.646172,8.51666667 107.737839,11.2363889 C107.737839,13.8788889 106.202708,15.4563889 103.630885,15.4563889 Z M66.9527604,5.10944444 C65.05125,5.10944444 63.5161198,5.81333333 62.6252344,7.09555556 C61.672474,5.79527778 60.1350521,5.10944444 58.2621875,5.10944444 C54.8160938,5.10944444 52.7083333,7.18194444 52.7083333,10.6536111 L52.7083333,17.1233333 C52.7083333,17.3944444 52.9741667,17.5 53.25375,17.5 L54.7227083,17.5 C55.0022917,17.5 55.2864583,17.3944444 55.2864583,17.1233333 L55.2864583,10.6536111 C55.2864583,7.87722222 57.010651,7.29416667 58.4375,7.29416667 C59.5114323,7.29416667 61.3020833,8.38833333 61.3020833,9.66 L61.3020833,17.1155556 C61.3020833,17.3580556 61.5051823,17.5 61.7555469,17.5 L63.4267448,17.5 C63.6771094,17.5 63.8802083,17.3580556 63.8802083,17.1155556 L63.8802083,9.65027778 C63.8802083,8.3275 65.2875781,7.29416667 66.7447917,7.29416667 C68.1716406,7.29416667 69.8958333,7.87722222 69.8958333,10.6536111 L69.8958333,17.1233333 C69.8958333,17.3944444 70.2355729,17.5 70.5151563,17.5 L71.9841146,17.5 C72.2636979,17.5 72.4739583,17.3944444 72.4739583,17.1233333 L72.4739583,10.6536111 C72.4739583,7.18194444 70.3985677,5.10944444 66.9527604,5.10944444 Z M88.3723958,5.10944444 C84.6392708,5.11055556 82.2135417,7.42777778 82.2135417,11.1577778 L82.2135417,17.1233333 C82.2135417,17.3944444 82.544974,17.5 82.8242708,17.5 L84.2935156,17.5 C84.5733854,17.5 84.7916667,17.3944444 84.7916667,17.1233333 L84.7916667,11.1577778 C84.7916667,7.7525 87.374375,7.60861111 88.3723958,7.575 C89.3704167,7.60861111 91.953125,7.7525 91.953125,11.1577778 L91.953125,17.1233333 C91.953125,17.3944444 92.1668229,17.5 92.4464063,17.5 L93.9159375,17.5 C94.1952344,17.5 94.53125,17.3944444 94.53125,17.1233333 L94.53125,11.1577778 C94.53125,7.42777778 92.1052344,5.11055556 88.3723958,5.10944444 Z" id="Fill-19" fill="#3C3F44"></path>
                    <path d="M19.6011979,4.37888889 C18.166901,2.60861111 15.4458333,1.41277778 12.3225781,1.41277778 C8.48861979,1.41277778 5.25994792,3.21416667 4.27596354,5.66888889 C1.83447917,6.51361111 0.086796875,8.77444444 0.086796875,11.4319444 C0.086796875,14.8108333 2.9115625,17.55 6.39632812,17.55 C7.62838542,17.55 8.77736979,17.2061111 9.74903646,16.6138889 L10.0478125,19.28 C10.1165625,19.8933333 10.9238021,20.1086111 11.3065104,19.6158333 L14.0390365,16.095 C14.2472917,16.1269444 14.4589844,16.1483333 14.6766927,16.1483333 C16.4003125,16.1483333 17.8689844,15.1033333 18.4553646,13.6327778 C21.4227865,13.4627778 23.7680208,11.4225 23.7680208,8.92416667 C23.7680208,6.75805556 22.0040104,4.93666667 19.6011979,4.37888889" id="Fill-18" fill="#4A89DC"></path>
                </g>
            </g>
        </g>
    </g>
</svg>
